<?xml version="1.0" encoding="UTF-8"?>
<svg id="Camada_2" data-name="Camada 2" xmlns="http://www.w3.org/2000/svg" viewBox="0 0 743.59 743.6">
  <g id="Layer_1" data-name="Layer 1">
    <g>
      <path d="M19.2,19.21c1.12-.47,2.28-.86,3.47-1.07,5.54-3.01,11.34-5.61,17.2-8.15,.07-.03,.15,.08,.07,.11-6.46,3.04-12.92,6.69-18.91,10.94-4.25,5.99-7.89,12.45-10.94,18.91-.04,.08-.15,0-.12-.07,2.54-5.86,5.14-11.65,8.16-17.2,.2-1.19,.6-2.35,1.07-3.47Zm705.19,0c.47,1.12,.87,2.28,1.07,3.47,3.02,5.55,5.62,11.34,8.16,17.2,.03,.07-.08,.15-.12,.07-3.05-6.46-6.69-12.92-10.94-18.91-5.99-4.25-12.45-7.89-18.91-10.94-.08-.03,0-.15,.06-.11,5.87,2.54,11.66,5.14,17.21,8.15,1.18,.21,2.34,.6,3.46,1.07Zm0,705.19c-1.12,.47-2.28,.86-3.46,1.07-5.55,3.03-11.34,5.62-17.21,8.16-.07,.03-.15-.08-.06-.11,6.46-3.05,12.92-6.69,18.91-10.94,4.25-5.99,7.88-12.45,10.94-18.91,.04-.08,.15-.01,.12,.07-2.54,5.86-5.14,11.67-8.16,17.2-.2,1.19-.6,2.34-1.07,3.47Zm-705.19,0c-.47-1.12-.87-2.28-1.07-3.47-3.02-5.53-5.62-11.34-8.16-17.2-.03-.08,.08-.15,.12-.07,3.05,6.46,6.69,12.92,10.94,18.91,5.99,4.25,12.45,7.89,18.91,10.94,.08,.03,0,.15-.07,.11-5.87-2.54-11.66-5.13-17.2-8.16-1.19-.21-2.34-.6-3.47-1.07ZM144.76,29.87h-.51c-.06-.1-.14-.19-.21-.31,.24,.11,.48,.21,.72,.31ZM29.86,598.84c0,.16,0,.33,0,.51-.11,.06-.2,.13-.3,.19,.1-.23,.2-.47,.31-.7Zm568.97,114.89h.5c.07,.1,.15,.2,.21,.31-.23-.11-.47-.21-.71-.31Zm114.88-568.98c0-.16,0-.33,0-.49,.1-.08,.2-.15,.3-.21-.1,.23-.2,.47-.31,.7Zm-114.18-115.2c-.07,.11-.14,.21-.21,.31h-.5c.24-.1,.48-.19,.72-.31ZM29.56,144.06c.1,.07,.19,.13,.3,.21,0,.16,0,.33,0,.49-.11-.23-.2-.47-.31-.7Zm114.49,569.99c.06-.11,.14-.21,.2-.31h.51c-.24,.1-.48,.2-.71,.31Zm569.98-114.5c-.1-.07-.2-.13-.3-.19,0-.18,0-.34,0-.51,.1,.23,.21,.47,.31,.7ZM173.43,21.68c-5.45,5.88-5.26,16.65-.02,22.66,.51,.58,.51,1.28,.25,1.84-.04,.31-.22,.57-.55,.68-.39,.29-.87,.41-1.34,.25-5.35,.96-9,2.57-11.86,7.8-3.02,5.49-2.68,10.94,.28,16.54,.03,.05-.05,.08-.08,.03-3.46-6.1-5.38-11.93-2.03-18.54,1.76-3.45,5.08-6.72,8.89-7.93-7.99-1.5-15.71-2.6-23.97-.62-9.18,2.2-17.51,3.21-26.96,2.12-.17-.02-.18-.28,0-.28,10.38,.6,20.01-1.81,30.02-4.14,8.05-1.89,15.72-1.58,23.05,1.77-3.75-6.64-2.86-15.84,2.05-21.7,5.33-6.35,13.73-8.04,21.45-5.74,.11,.03,.1,.21-.03,.19-6.53-.73-14.39-.07-19.15,5.06ZM21.67,570.17c5.88,5.45,16.64,5.26,22.66,.02,.6-.51,1.29-.52,1.85-.25,.3,.03,.56,.21,.67,.55,.28,.39,.41,.88,.25,1.35,.95,5.34,2.56,9,7.78,11.86,5.49,3.01,10.95,2.67,16.54-.29,.05-.02,.1,.05,.04,.08-6.11,3.47-11.93,5.37-18.54,2.02-3.46-1.74-6.71-5.06-7.93-8.87-1.49,7.99-2.6,15.7-.61,23.97,2.2,9.18,3.21,17.5,2.11,26.95-.02,.18-.28,.18-.27,0,.59-10.38-1.82-20.02-4.15-30.01-1.87-8.06-1.57-15.72,1.78-23.06-6.64,3.74-15.85,2.85-21.7-2.05-6.34-5.34-8.04-13.72-5.74-21.45,.03-.11,.21-.1,.19,.02-.73,6.54-.07,14.4,5.06,19.16Zm548.49,151.76c5.44-5.88,5.26-16.64,0-22.66-.51-.59-.51-1.29-.24-1.84,.04-.31,.22-.57,.56-.68,.38-.28,.87-.41,1.33-.24,5.35-.96,9.01-2.57,11.87-7.78,3.02-5.5,2.68-10.95-.29-16.55-.02-.03,.05-.08,.08-.03,3.46,6.1,5.38,11.93,2.03,18.54-1.76,3.47-5.07,6.72-8.89,7.93,8,1.5,15.72,2.6,23.98,.62,9.18-2.2,17.5-3.2,26.95-2.11,.17,.02,.18,.28,0,.28-10.38-.6-20.01,1.81-30.01,4.13-8.06,1.89-15.73,1.58-23.06-1.77,3.75,6.64,2.86,15.85-2.05,21.7-5.33,6.35-13.72,8.04-21.45,5.75-.1-.03-.1-.21,.02-.19,6.53,.73,14.4,.07,19.16-5.06ZM721.91,173.44c-5.87-5.45-16.64-5.26-22.66-.02-.59,.52-1.28,.52-1.85,.24-.3-.03-.56-.21-.67-.55-.28-.39-.41-.88-.25-1.35-.95-5.34-2.56-9-7.78-11.86-5.49-3.01-10.94-2.67-16.54,.29-.05,.02-.1-.05-.04-.08,6.1-3.47,11.93-5.37,18.54-2.02,3.46,1.74,6.71,5.06,7.93,8.89,1.49-8.01,2.59-15.72,.61-23.99-2.2-9.18-3.21-17.5-2.11-26.95,.02-.16,.28-.18,.27,0-.6,10.39,1.81,20.02,4.14,30.01,1.87,8.07,1.57,15.74-1.78,23.06,6.65-3.74,15.84-2.85,21.7,2.05,6.34,5.34,8.04,13.72,5.74,21.45-.03,.11-.21,.1-.19-.02,.73-6.54,.06-14.4-5.06-19.16ZM551.01,16.62c-.12,.02-.13-.16-.03-.19,7.74-2.3,16.13-.6,21.45,5.74,4.91,5.86,5.8,15.06,2.06,21.7,7.33-3.35,15-3.66,23.06-1.77,10,2.33,19.63,4.74,30.01,4.14,.18,0,.17,.26,0,.28-9.46,1.09-17.78,.08-26.95-2.12-8.27-1.99-15.99-.88-23.98,.62,3.81,1.2,7.13,4.48,8.89,7.93,3.35,6.61,1.43,12.43-2.03,18.54-.03,.05-.1,.02-.08-.03,2.96-5.6,3.3-11.05,.29-16.54-2.86-5.23-6.52-6.84-11.87-7.8-.47,.16-.95,.05-1.34-.25-.33-.11-.51-.37-.55-.68-.27-.55-.27-1.25,.24-1.84,5.25-6.01,5.44-16.78-.02-22.66-4.76-5.13-12.61-5.8-19.15-5.06ZM16.61,192.59c.02,.11-.16,.13-.19,.02-2.3-7.73-.6-16.11,5.74-21.45,5.86-4.9,15.06-5.8,21.7-2.05-3.35-7.32-3.65-14.99-1.78-23.06,2.33-9.99,4.74-19.63,4.15-30.01-.02-.18,.24-.16,.27,0,1.1,9.46,.09,17.77-2.11,26.95-1.99,8.27-.88,15.98,.61,23.98,1.22-3.81,4.48-7.13,7.93-8.87,6.61-3.35,12.43-1.45,18.54,2.02,.06,.03,0,.1-.04,.08-5.59-2.96-11.04-3.3-16.54-.28-5.22,2.85-6.83,6.51-7.78,11.87,.16,.45,.03,.94-.25,1.33-.11,.34-.38,.52-.67,.55-.56,.28-1.25,.26-1.85-.24-6.01-5.24-16.78-5.44-22.66,.02-5.13,4.75-5.79,12.61-5.06,19.16ZM192.58,726.99c.12-.02,.14,.16,.03,.19-7.73,2.3-16.12,.6-21.45-5.75-4.91-5.84-5.8-15.06-2.06-21.7-7.33,3.35-15,3.66-23.05,1.77-10.01-2.33-19.64-4.74-30.02-4.13-.18,0-.17-.26,0-.28,9.46-1.09,17.78-.08,26.96,2.11,8.26,1.99,15.98,.88,23.97-.62-3.81-1.2-7.13-4.46-8.89-7.93-3.35-6.61-1.43-12.43,2.04-18.54,.02-.05,.1,0,.07,.03-2.95,5.6-3.3,11.05-.28,16.55,2.86,5.21,6.53,6.82,11.86,7.78,.47-.16,.95-.03,1.34,.24,.33,.11,.51,.38,.55,.68,.27,.55,.27,1.25-.25,1.84-5.25,6.02-5.43,16.78,.02,22.66,4.76,5.13,12.61,5.79,19.15,5.06Zm534.4-175.98c-.02-.11,.16-.13,.19-.02,2.3,7.73,.6,16.11-5.74,21.45-5.86,4.92-15.05,5.8-21.7,2.05,3.35,7.34,3.65,15.01,1.78,23.06-2.34,9.99-4.74,19.63-4.14,30.01,0,.18-.25,.18-.27,0-1.11-9.46-.1-17.77,2.11-26.95,1.98-8.27,.88-15.98-.61-23.97-1.22,3.81-4.48,7.13-7.93,8.87-6.61,3.37-12.43,1.45-18.54-2.02-.06-.03,0-.1,.04-.08,5.59,2.96,11.04,3.3,16.54,.29,5.22-2.86,6.83-6.53,7.78-11.86-.15-.47-.03-.96,.25-1.35,.11-.34,.37-.52,.67-.55,.56-.28,1.25-.26,1.85,.25,6.02,5.24,16.78,5.43,22.66-.02,5.13-4.75,5.79-12.61,5.06-19.16ZM371.79,10.39c-5.77,.67-11.42,2.24-16.7,4.6-.76,.55-1.5,1.19-2.18,1.99-2.12,2.49-4,5.31-5.01,8.45-2,6.22-2.52,14.62,2.57,19.61,.04,.03-.02,.1-.06,.07-5.24-5.55-7.06-12.81-4.61-20.25,.72-2.15,1.86-4.59,3.39-6.8-12.37,7.34-21.88,19.29-24.69,33.94,0,.03-.03,.01-.03,0,3.9-23.72,23.45-42.74,47.31-44.35,23.86,1.61,43.42,20.64,47.31,44.35,0,.01-.03,.03-.03,0-2.82-14.65-12.32-26.59-24.69-33.94,1.52,2.21,2.67,4.66,3.39,6.8,2.45,7.44,.63,14.7-4.6,20.25-.04,.03-.11-.03-.06-.07,5.09-5,4.57-13.39,2.57-19.61-1.01-3.14-2.88-5.96-5-8.45-.68-.8-1.42-1.43-2.18-1.99-5.28-2.36-10.93-3.94-16.7-4.6Zm361.42,361.42c-.67-5.78-2.24-11.42-4.6-16.7-.55-.77-1.19-1.52-1.99-2.18-2.49-2.13-5.3-4-8.45-5.01-6.21-2-14.6-2.52-19.6,2.57-.04,.05-.1-.02-.07-.06,5.54-5.23,12.81-7.05,20.25-4.59,2.15,.7,4.58,1.85,6.81,3.39-7.35-12.39-19.29-21.88-33.94-24.69-.02-.02-.01-.05,0-.03,23.71,3.89,42.74,23.45,44.35,47.31-1.61,23.85-20.64,43.41-44.35,47.3-.02,.02-.03-.02,0-.03,14.66-2.82,26.59-12.31,33.94-24.69-2.23,1.53-4.66,2.68-6.81,3.39-7.44,2.46-14.71,.64-20.25-4.59-.03-.05,.03-.1,.07-.07,5,5.1,13.39,4.57,19.6,2.57,3.15-1.01,5.96-2.88,8.45-5.01,.8-.67,1.43-1.42,1.99-2.18,2.36-5.27,3.94-10.92,4.6-16.68Zm-361.42,361.41c5.77-.67,11.42-2.25,16.7-4.61,.77-.55,1.51-1.19,2.18-1.98,2.12-2.49,3.99-5.31,5-8.45,2-6.22,2.52-14.6-2.57-19.61-.04-.03,.02-.1,.06-.07,5.23,5.55,7.05,12.81,4.6,20.25-.72,2.15-1.86,4.59-3.39,6.8,12.37-7.34,21.87-19.29,24.69-33.93,0-.03,.03-.02,.03,0-3.9,23.71-23.45,42.74-47.31,44.35-23.86-1.61-43.42-20.64-47.31-44.35,0-.02,.03-.03,.03,0,2.81,14.65,12.32,26.59,24.69,33.93-1.52-2.21-2.67-4.65-3.39-6.8-2.45-7.44-.63-14.7,4.61-20.25,.03-.03,.1,.03,.06,.07-5.09,5.01-4.57,13.39-2.57,19.61,1.01,3.14,2.88,5.96,5.01,8.45,.68,.8,1.41,1.43,2.18,1.98,5.28,2.36,10.93,3.94,16.7,4.61ZM10.38,371.81c.67,5.76,2.25,11.41,4.61,16.68,.55,.76,1.19,1.51,1.99,2.18,2.49,2.13,5.31,4,8.45,5.01,6.21,2,14.6,2.52,19.6-2.57,.05-.03,.11,.02,.07,.07-5.54,5.23-12.81,7.05-20.25,4.59-2.15-.7-4.58-1.86-6.81-3.39,7.35,12.39,19.29,21.88,33.95,24.69,.02,.01,0,.05-.02,.03-23.71-3.89-42.74-23.45-44.35-47.3,1.61-23.86,20.64-43.42,44.35-47.31,.03-.02,.03,.02,.02,.03-14.66,2.82-26.6,12.31-33.95,24.69,2.23-1.53,4.66-2.68,6.81-3.39,7.44-2.46,14.71-.64,20.25,4.59,.03,.05-.02,.11-.07,.06-5-5.09-13.39-4.57-19.6-2.57-3.15,1.01-5.96,2.88-8.45,5.01-.8,.67-1.43,1.42-1.99,2.18-2.36,5.27-3.94,10.92-4.61,16.7ZM371.79,0c-3.95,.38-7.89,1.2-11.74,2.52-10.61-.29-20.82,5.39-29.65,10.77-9.83,6-19.29,12.24-30.19,16.21-10.3,3.74-22.46,5.94-32.76,1.08-4.96-2.34-9.55-6.69-10.9-12.13-.64-2.59,.03-5.29,1.37-7.53,1-1.69,4.11-4.61,5.92-5.52,.42-.19,.39-.8,.09-1.07,.06-.38-.07-.76-.49-.94-12.33-5.31-26.81,1.71-28.46,15.15-1.77,14.34,9.76,25.19,21.96,29.85,16.97,6.48,35.08-1.25,49.57-10.08,4.01-2.44,7.84-5.13,11.64-7.88-.47,.88-.91,1.79-1.28,2.8-1.72,4.66-1.37,8.9-.26,13.66,.6,2.55,1.6,5.04,2.35,7.57,.63,2.15,.57,4.3,1.41,6.33,0,.21,.11,.41,.27,.54,.11,.11,.25,.18,.41,.2,.18,.03,.36,.03,.54-.07,7.06-3.37,14.51-10.87,16.56-18.54,.18-.7,.33-1.38,.46-2.08,3.61,7.18,9.99,12.82,18.2,13.51,3.97,.34,7.71-.15,11.46-1.47,.93-.33,2.46-.38,3.54-.88,1.08,.51,2.61,.55,3.54,.88,3.75,1.32,7.49,1.81,11.46,1.47,8.2-.69,14.59-6.33,18.2-13.51,.13,.7,.28,1.38,.45,2.08,2.05,7.67,9.5,15.17,16.57,18.54,.16,.1,.36,.1,.53,.07,.15-.02,.3-.08,.41-.2,.16-.13,.26-.32,.27-.54,.84-2.03,.77-4.18,1.41-6.33,.75-2.52,1.75-5.01,2.35-7.57,1.11-4.75,1.46-9-.26-13.66-.37-1.01-.81-1.92-1.28-2.8,3.79,2.75,7.62,5.44,11.64,7.88,14.49,8.82,32.6,16.55,49.57,10.08,12.2-4.66,23.72-15.51,21.96-29.85-1.65-13.44-16.12-20.46-28.46-15.15-.42,.18-.54,.57-.49,.94-.3,.28-.33,.88,.09,1.07,1.81,.91,4.92,3.83,5.93,5.52,1.33,2.25,2,4.95,1.36,7.53-1.35,5.44-5.93,9.78-10.9,12.13-10.29,4.87-22.46,2.67-32.75-1.08-10.9-3.97-20.36-10.2-30.19-16.21-8.82-5.39-19.03-11.07-29.65-10.77-3.85-1.32-7.79-2.15-11.74-2.52ZM0,371.81c.36,3.94,1.19,7.89,2.51,11.74-.28,10.61,5.4,20.83,10.78,29.64,6.01,9.85,12.24,19.29,16.2,30.21,3.74,10.29,5.94,22.44,1.09,32.75-2.35,4.96-6.7,9.55-12.13,10.91-2.6,.65-5.3-.03-7.54-1.37-1.7-1.01-4.6-4.1-5.51-5.92-.21-.42-.81-.39-1.08-.08-.37-.07-.76,.07-.94,.49-5.31,12.32,1.72,26.81,15.15,28.45,14.35,1.77,25.19-9.75,29.85-21.96,6.48-16.96-1.25-35.08-10.07-49.58-2.44-4-5.14-7.83-7.88-11.62,.87,.45,1.78,.9,2.78,1.27,4.66,1.71,8.91,1.37,13.66,.26,2.56-.6,5.05-1.59,7.57-2.34,2.14-.63,4.3-.59,6.33-1.42,.22,0,.4-.1,.54-.26,.11-.11,.18-.26,.19-.41,.03-.18,.02-.37-.06-.54-3.39-7.06-10.88-14.52-18.55-16.57-.7-.18-1.39-.33-2.09-.46,7.18-3.6,12.82-9.99,13.52-18.2,.33-3.97-.16-7.7-1.47-11.46-.32-.93-.37-2.46-.89-3.53,.51-1.09,.56-2.62,.89-3.55,1.31-3.74,1.81-7.49,1.47-11.46-.7-8.2-6.35-14.6-13.52-18.2,.7-.13,1.39-.28,2.09-.45,7.66-2.05,15.16-9.49,18.55-16.57,.08-.16,.09-.36,.06-.54-.02-.15-.08-.29-.19-.41-.14-.15-.32-.24-.54-.26-2.03-.83-4.19-.78-6.33-1.42-2.52-.75-5-1.74-7.57-2.34-4.75-1.11-9.01-1.45-13.66,.26-1,.38-1.91,.81-2.78,1.29,2.74-3.79,5.44-7.63,7.88-11.64,8.81-14.5,16.55-32.62,10.07-49.58-4.66-12.21-15.5-23.73-29.85-21.96-13.44,1.65-20.46,16.13-15.15,28.47,.19,.42,.57,.54,.94,.47,.28,.31,.87,.34,1.08-.08,.9-1.82,3.81-4.92,5.51-5.92,2.24-1.34,4.94-2.02,7.54-1.37,5.43,1.35,9.78,5.94,12.13,10.91,4.85,10.3,2.65,22.46-1.09,32.76-3.96,10.9-10.19,20.34-16.2,30.19-5.39,8.82-11.07,19.03-10.78,29.64-1.31,3.84-2.14,7.8-2.51,11.75Zm371.79,371.79c3.95-.37,7.89-1.2,11.74-2.52,10.61,.29,20.82-5.39,29.65-10.77,9.83-6.01,19.29-12.24,30.19-16.21,10.29-3.73,22.46-5.94,32.75-1.07,4.97,2.34,9.55,6.7,10.9,12.12,.64,2.59-.03,5.29-1.36,7.54-1.01,1.69-4.12,4.6-5.93,5.52-.42,.21-.39,.8-.09,1.07-.06,.37,.06,.76,.49,.94,12.34,5.31,26.81-1.71,28.46-15.15,1.76-14.34-9.76-25.19-21.96-29.85-16.97-6.48-35.07,1.25-49.57,10.07-4.01,2.44-7.84,5.13-11.64,7.88,.47-.88,.91-1.79,1.28-2.8,1.72-4.66,1.37-8.9,.26-13.66-.6-2.56-1.6-5.05-2.35-7.57-.63-2.15-.57-4.3-1.41-6.33,0-.21-.1-.41-.27-.54-.1-.11-.25-.18-.41-.19-.17-.03-.37-.02-.53,.07-7.07,3.39-14.52,10.87-16.57,18.54-.18,.7-.32,1.4-.45,2.08-3.6-7.18-9.99-12.83-18.2-13.51-3.97-.34-7.71,.15-11.46,1.47-.93,.33-2.46,.37-3.54,.9-1.08-.52-2.61-.57-3.54-.9-3.75-1.32-7.49-1.81-11.46-1.47-8.2,.68-14.59,6.33-18.2,13.51-.13-.68-.28-1.38-.46-2.08-2.05-7.67-9.5-15.15-16.56-18.54-.17-.08-.36-.1-.54-.07-.15,.02-.3,.08-.41,.19-.16,.13-.26,.33-.27,.54-.84,2.03-.77,4.18-1.41,6.33-.75,2.52-1.75,5.01-2.35,7.57-1.11,4.75-1.46,9,.26,13.66,.36,1.01,.81,1.92,1.28,2.8-3.79-2.75-7.62-5.44-11.64-7.88-14.49-8.82-32.6-16.55-49.57-10.07-12.2,4.66-23.72,15.51-21.96,29.85,1.65,13.44,16.13,20.46,28.46,15.15,.42-.18,.54-.57,.49-.94,.3-.28,.33-.86-.09-1.07-1.82-.91-4.92-3.83-5.92-5.52-1.34-2.25-2.01-4.95-1.37-7.54,1.35-5.42,5.94-9.78,10.9-12.12,10.3-4.87,22.46-2.65,32.76,1.07,10.9,3.97,20.36,10.2,30.19,16.21,8.82,5.39,19.03,11.07,29.65,10.77,3.85,1.32,7.79,2.15,11.74,2.52Zm371.79-371.79c-.37-3.95-1.2-7.91-2.51-11.75,.28-10.61-5.39-20.82-10.78-29.64-6.01-9.85-12.24-19.29-16.2-30.19-3.74-10.3-5.94-22.46-1.09-32.76,2.35-4.97,6.71-9.56,12.13-10.91,2.59-.65,5.3,.03,7.54,1.37,1.7,1.01,4.61,4.1,5.51,5.92,.21,.42,.8,.39,1.08,.08,.38,.06,.76-.05,.94-.47,5.3-12.34-1.72-26.82-15.15-28.47-14.35-1.77-25.2,9.75-29.85,21.96-6.48,16.96,1.26,35.07,10.07,49.58,2.44,4.01,5.13,7.85,7.88,11.64-.88-.47-1.8-.91-2.79-1.29-4.65-1.71-8.91-1.37-13.66-.26-2.56,.6-5.04,1.59-7.58,2.34-2.14,.64-4.29,.59-6.32,1.42-.21,.02-.4,.11-.53,.26-.12,.11-.18,.26-.2,.41-.04,.18-.02,.38,.06,.54,3.38,7.08,10.87,14.52,18.54,16.57,.7,.18,1.39,.33,2.09,.45-7.18,3.6-12.83,9.99-13.53,18.2-.33,3.97,.16,7.72,1.47,11.46,.33,.93,.37,2.46,.89,3.55-.51,1.08-.56,2.6-.89,3.53-1.31,3.76-1.81,7.49-1.47,11.46,.69,8.2,6.35,14.6,13.53,18.2-.7,.13-1.39,.28-2.09,.46-7.67,2.05-15.16,9.51-18.54,16.57-.09,.16-.11,.36-.06,.54,.02,.15,.08,.29,.2,.41,.13,.16,.32,.26,.53,.26,2.03,.83,4.18,.78,6.32,1.42,2.53,.75,5.01,1.74,7.58,2.34,4.75,1.11,9.01,1.45,13.66-.26,.99-.37,1.91-.81,2.79-1.27-2.75,3.79-5.44,7.62-7.88,11.62-8.81,14.5-16.55,32.62-10.07,49.58,4.65,12.21,15.5,23.73,29.85,21.96,13.43-1.64,20.46-16.13,15.15-28.45-.19-.42-.57-.55-.94-.49-.28-.31-.87-.34-1.08,.08-.9,1.82-3.81,4.91-5.51,5.92-2.24,1.33-4.94,2.02-7.54,1.37-5.43-1.35-9.78-5.94-12.13-10.91-4.85-10.3-2.65-22.46,1.09-32.75,3.96-10.92,10.19-20.36,16.2-30.21,5.39-8.81,11.07-19.03,10.78-29.64,1.31-3.84,2.14-7.8,2.51-11.74ZM371.79,49.22s-.02-.02-.04-.02c-.13-.02-.26-.02-.38-.03-.15-.15-.34-.23-.59-.21-7.36,.85-13.06-2.59-15.3-9.59-1.88-5.86-.24-12.78,3.98-17.22,2.99-3.14,7.58-4.57,12.34-4.95,4.76,.38,9.34,1.81,12.34,4.95,4.22,4.44,5.87,11.36,3.98,17.22-2.24,7-7.94,10.43-15.3,9.59-.25-.02-.45,.07-.59,.21-.12,.02-.25,.02-.38,.03-.02,0-.02,.02-.04,.02ZM49.2,371.81v.03c-.02,.13-.03,.26-.04,.39-.15,.13-.24,.33-.21,.59,.84,7.36-2.59,13.07-9.58,15.3-5.88,1.89-12.79,.24-17.23-3.97-3.14-3.01-4.58-7.58-4.96-12.34,.38-4.77,1.82-9.34,4.96-12.34,4.44-4.23,11.35-5.88,17.23-3.99,6.99,2.23,10.42,7.94,9.58,15.3-.02,.26,.06,.45,.21,.6,0,.11,.02,.25,.04,.38v.05Zm322.59,322.58s.02,.02,.04,.02c.13,.02,.26,.02,.38,.03,.15,.15,.34,.24,.59,.21,7.36-.83,13.06,2.59,15.3,9.59,1.89,5.86,.24,12.78-3.98,17.22-2.99,3.14-7.58,4.57-12.34,4.97-4.76-.39-9.34-1.82-12.34-4.97-4.22-4.44-5.86-11.36-3.98-17.22,2.24-7,7.94-10.42,15.3-9.59,.25,.03,.45-.07,.59-.21,.12-.02,.25-.02,.38-.03,.02,0,.02,0,.04-.02Zm322.59-322.58v-.05c.02-.13,.03-.26,.04-.38,.15-.15,.23-.34,.21-.6-.84-7.36,2.59-13.07,9.58-15.3,5.88-1.89,12.79-.24,17.23,3.99,3.14,3,4.58,7.57,4.95,12.34-.37,4.75-1.81,9.33-4.95,12.34-4.43,4.22-11.35,5.86-17.23,3.97-6.99-2.23-10.42-7.94-9.58-15.3,.02-.26-.06-.46-.21-.59,0-.13-.02-.26-.04-.39v-.03ZM371.79,96.01c-4.76,1.67-9.72,2.86-14.63,3.68-34.12,5.7-68.85-7.52-100.14-20.46-32.44-13.41-68.96-34.26-71.72-35.79-1.99-3.43-2.39-7.62-.81-12.26,1.2-3.51,4-6.43,7.55-7.55,5.05-1.61,12.02,.78,13.47,5.79-.18,.7-.44,1.43-.79,2.2-.26,.57,.27,1.16,.85,.86,.05-.03,.09-.05,.14-.08,0,.03,0,.05,0,.08-.02,.15,.16,.24,.25,.1,.09-.15,.16-.29,.23-.46,6.79-4.2-.93-13.88-4.78-17.29-5.65-4.95-13.31-6.56-20.63-5.84-6.9,.67-14.47,4.26-16.92,11.2-1.12-1.66-2.48-3.06-3.95-4.05-4.28-2.83-17.23-6.67-16.15-13.56,.04-.23-.23-.34-.37-.16-1.38,1.81-1.66,3.5-1.25,5.05-1.97,4.47-1.16,10.38,1.29,15.56-2.32-3.92-40.38-23.81-88.96-20.26-14.26,1.04-29.13,3.94-42.56,9.15C6.7,25.34,3.8,40.22,2.77,54.48c-3.56,48.58,16.34,86.64,20.25,88.95-5.18-2.44-11.08-3.25-15.56-1.29-1.55-.41-3.25-.13-5.05,1.25-.18,.15-.07,.41,.16,.38,6.88-1.08,10.73,11.86,13.56,16.14,.98,1.48,2.4,2.83,4.06,3.96-6.95,2.44-10.55,10.02-11.21,16.91-.71,7.34,.89,14.99,5.85,20.64,3.39,3.86,13.09,11.57,17.28,4.78,.15-.08,.3-.15,.45-.23,.14-.08,.03-.28-.1-.26-.02,.02-.05,.02-.08,.02,.03-.05,.06-.1,.08-.15,.29-.59-.29-1.11-.85-.85-.77,.34-1.5,.62-2.21,.8-5.02-1.47-7.4-8.41-5.8-13.48,1.12-3.55,4.05-6.35,7.56-7.55,4.65-1.59,8.82-1.19,12.26,.8,1.51,2.77,22.38,39.29,35.78,71.73,12.94,31.3,26.15,66.01,20.46,100.13-.82,4.92-1.99,9.88-3.68,14.65,1.69,4.75,2.86,9.72,3.68,14.63,5.69,34.11-7.52,68.85-20.46,100.13-13.4,32.44-34.27,68.96-35.78,71.73-3.44,1.98-7.62,2.39-12.26,.8-3.52-1.2-6.44-4-7.56-7.55-1.6-5.06,.78-12.01,5.8-13.46,.71,.18,1.43,.44,2.21,.78,.56,.26,1.15-.26,.85-.85-.02-.05-.06-.1-.08-.15,.03,0,.06,0,.08,.02,.14,.01,.24-.16,.1-.25-.15-.1-.31-.16-.45-.24-4.2-6.79-13.89,.93-17.28,4.78-4.97,5.65-6.56,13.3-5.85,20.64,.66,6.9,4.26,14.47,11.21,16.91-1.66,1.12-3.08,2.47-4.06,3.95-2.83,4.28-6.67,17.22-13.56,16.15-.24-.03-.34,.23-.16,.37,1.8,1.38,3.49,1.66,5.05,1.25,4.48,1.97,10.38,1.17,15.56-1.28-3.91,2.31-23.81,40.36-20.25,88.95,1.03,14.26,3.93,29.13,9.14,42.56,13.43,5.21,28.31,8.1,42.56,9.15,48.58,3.55,86.64-16.34,88.96-20.26-2.46,5.17-3.26,11.08-1.29,15.56-.41,1.55-.13,3.24,1.25,5.05,.14,.18,.41,.08,.37-.16-1.07-6.89,11.87-10.73,16.15-13.56,1.47-.98,2.83-2.39,3.95-4.05,2.45,6.95,10.02,10.53,16.92,11.2,7.33,.72,14.98-.9,20.63-5.84,3.86-3.4,11.57-13.09,4.78-17.28-.07-.16-.15-.31-.23-.45-.08-.15-.27-.05-.25,.1,0,.03,0,.05,0,.08-.05-.03-.09-.05-.14-.08-.59-.29-1.11,.29-.85,.86,.35,.77,.61,1.5,.79,2.2-1.45,5.03-8.41,7.4-13.47,5.81-3.55-1.14-6.35-4.05-7.55-7.57-1.59-4.64-1.19-8.82,.81-12.25,2.76-1.51,39.28-22.38,71.72-35.79,31.29-12.94,66.02-26.14,100.14-20.46,4.92,.83,9.87,2,14.63,3.68,4.76-1.68,9.72-2.85,14.63-3.68,34.12-5.68,68.85,7.52,100.14,20.46,32.44,13.41,68.96,34.28,71.73,35.79,1.99,3.43,2.38,7.62,.8,12.25-1.21,3.52-4.01,6.43-7.55,7.57-5.05,1.59-12.02-.78-13.47-5.81,.18-.7,.44-1.43,.8-2.2,.25-.57-.28-1.16-.86-.86-.05,.03-.09,.05-.14,.08,0-.03,0-.05,0-.08,.02-.15-.16-.24-.24-.1-.08,.14-.16,.29-.23,.45-6.79,4.2,.92,13.88,4.78,17.28,5.65,4.95,13.31,6.56,20.64,5.84,6.89-.67,14.46-4.25,16.91-11.2,1.12,1.66,2.48,3.08,3.96,4.05,4.28,2.83,17.23,6.67,16.15,13.56-.04,.24,.23,.34,.37,.16,1.38-1.81,1.66-3.5,1.24-5.05,1.98-4.48,1.17-10.39-1.29-15.56,2.31,3.92,40.38,23.81,88.96,20.26,14.27-1.04,29.13-3.94,42.57-9.15,5.2-13.43,8.1-28.31,9.13-42.56,3.56-48.59-16.34-86.64-20.25-88.95,5.18,2.46,11.08,3.25,15.55,1.28,1.55,.41,3.25,.13,5.05-1.25,.18-.15,.07-.41-.16-.37-6.89,1.07-10.73-11.87-13.56-16.15-.98-1.48-2.4-2.83-4.06-3.95,6.95-2.44,10.55-10.01,11.2-16.91,.71-7.34-.89-14.99-5.85-20.64-3.39-3.86-13.09-11.57-17.28-4.78-.15,.08-.3,.15-.46,.24-.14,.08-.03,.26,.11,.25,.02-.02,.05-.02,.07-.02-.02,.05-.06,.1-.07,.15-.3,.58,.28,1.11,.85,.85,.77-.34,1.5-.6,2.21-.78,5.02,1.45,7.41,8.4,5.8,13.46-1.12,3.55-4.04,6.35-7.56,7.55-4.65,1.6-8.82,1.19-12.26-.8-1.51-2.77-22.38-39.29-35.78-71.73-12.94-31.28-26.15-66.02-20.46-100.13,.82-4.92,2-9.88,3.69-14.63-1.69-4.77-2.87-9.73-3.69-14.65-5.69-34.11,7.52-68.83,20.46-100.13,13.4-32.44,34.27-68.96,35.78-71.73,3.44-1.99,7.62-2.39,12.26-.8,3.51,1.21,6.44,4.01,7.56,7.55,1.6,5.06-.78,12.01-5.8,13.48-.71-.18-1.43-.46-2.21-.8-.56-.26-1.15,.26-.85,.85,.02,.05,.05,.1,.07,.15-.02,0-.06,0-.07-.02-.14-.02-.25,.18-.11,.26,.16,.08,.31,.15,.46,.23,4.2,6.79,13.9-.93,17.28-4.78,4.96-5.65,6.56-13.3,5.85-20.64-.66-6.89-4.25-14.47-11.2-16.91,1.66-1.12,3.07-2.48,4.06-3.96,2.83-4.28,6.67-17.22,13.56-16.14,.24,.03,.34-.23,.16-.38-1.8-1.38-3.49-1.66-5.05-1.25-4.48-1.97-10.38-1.16-15.55,1.29,3.91-2.31,23.8-40.36,20.25-88.95-1.03-14.26-3.93-29.14-9.13-42.56-13.43-5.21-28.3-8.11-42.57-9.15-48.57-3.55-86.64,16.34-88.96,20.26,2.46-5.18,3.26-11.09,1.29-15.56,.41-1.55,.14-3.24-1.24-5.05-.14-.18-.41-.06-.37,.16,1.07,6.89-11.87,10.73-16.15,13.56-1.47,.99-2.83,2.39-3.96,4.05-2.45-6.93-10.02-10.53-16.91-11.2-7.33-.72-14.99,.9-20.64,5.84-3.86,3.4-11.57,13.09-4.78,17.29,.06,.16,.15,.31,.23,.46,.08,.15,.27,.05,.24-.1,0-.03,0-.05,0-.08,.05,.03,.09,.05,.14,.08,.59,.29,1.11-.29,.86-.86-.36-.76-.62-1.5-.8-2.2,1.45-5.01,8.41-7.41,13.47-5.79,3.55,1.12,6.35,4.04,7.55,7.55,1.59,4.64,1.19,8.82-.8,12.26-2.77,1.53-39.29,22.38-71.73,35.79-31.29,12.94-66.01,26.16-100.14,20.46-4.91-.82-9.87-2-14.63-3.68ZM72.11,72.12c3.35-5.27,4.88-11.46,3.13-17.45-2.96-10.19-18.93-17.61-24.29-5.83-.12,.11-.17,.26-.18,.39-.05,.11-.26,.36-.14,.33,9.16-1.9,10.95,3.84,11.32,8.09,.11,1.35-.02,2.69-.37,3.94-1.26,.36-2.59,.49-3.94,.38-4.24-.38-9.99-2.16-8.09-11.33,.02-.11-.21,.1-.32,.15-.14,0-.28,.05-.38,.18-11.8,5.37-4.36,21.32,5.82,24.3,5.98,1.74,12.17,.21,17.45-3.14Zm0,599.36c-5.28-3.35-11.47-4.88-17.45-3.12-10.18,2.96-17.62,18.93-5.82,24.28,.11,.13,.24,.18,.38,.18,.11,.05,.35,.26,.32,.15-1.9-9.16,3.85-10.95,8.09-11.33,1.35-.12,2.68,.01,3.94,.37,.35,1.25,.49,2.59,.37,3.94-.37,4.25-2.16,10-11.32,8.09-.12-.03,.09,.21,.14,.33,0,.13,.06,.28,.18,.39,5.36,11.8,21.33,4.36,24.29-5.83,1.74-5.99,.22-12.16-3.13-17.45Zm599.36,0c-3.35,5.29-4.87,11.46-3.13,17.45,2.96,10.19,18.93,17.63,24.29,5.83,.12-.11,.18-.26,.18-.39,.05-.11,.26-.36,.15-.33-9.16,1.91-10.96-3.84-11.33-8.09-.11-1.35,.03-2.68,.38-3.94,1.26-.36,2.59-.49,3.94-.37,4.24,.37,9.99,2.16,8.09,11.33-.02,.11,.21-.1,.32-.15,.15,0,.28-.05,.39-.18,11.8-5.35,4.36-21.32-5.82-24.28-5.98-1.76-12.17-.23-17.45,3.12Zm0-599.36c5.28,3.35,11.47,4.88,17.45,3.14,10.18-2.98,17.62-18.93,5.82-24.3-.1-.13-.24-.18-.39-.18-.11-.05-.34-.26-.32-.15,1.9,9.16-3.85,10.95-8.09,11.33-1.35,.11-2.68-.02-3.94-.38-.35-1.25-.49-2.59-.38-3.94,.37-4.25,2.16-9.99,11.33-8.09,.11,.03-.1-.21-.15-.33,0-.13-.06-.28-.18-.39-5.36-11.78-21.33-4.36-24.29,5.83-1.74,5.99-.22,12.18,3.13,17.45ZM30.21,30.21c.22-.31,.44-.62,.67-.93,3.25-3.32,6.97-6.25,11.13-8.74,12.74-7.65,27.21-9.1,41.73-7.39,11.73,1.38,23.12,5.19,34.46,8.38,4.83,1.35,9.66,2.85,14.31,4.7,2.18,.88,5.44,2.12,8.06,3.78-.89,.08-1.78,.19-2.67,.36-5.28,.98-10.07,3.92-14.68,6.51-2.75,1.53-5.48,2.96-8.47,4.02-4.16,1.47-7.32,.57-11.41-.32-.53-.13-.99,.42-.7,.91,.31,.55,.68,1.04,1.08,1.47,6.19,9.33,19.55,13.31,30.3,13.85,5.46,.26,10.82-1.68,15.68-3.97,.41-.19,.83-.39,1.23-.6-1.85,3.48-2.67,7.65-1.91,12.35,1.41,8.76,9.39,14.5,17.63,15.82,6.81,1.09,16.23-1.17,17.16-9.24,.07-.64-.5-1.01-1.06-1.01,.06-.23,.11-.44,.15-.68,.03-.16-.19-.28-.28-.11-3.64,6.43-10.91,3.29-13.82-1.56-1.8-3.01-1.25-6.98,.2-9.98,3.51-7.28,13.48-6.71,19.24-3.22,109.31,65.98,141.03,63.17,180.18,54.74,1.12-.25,2.24-.51,3.35-.78,1.11,.28,2.23,.54,3.36,.78,39.14,8.43,70.87,11.25,180.18-54.74,5.76-3.48,15.74-4.05,19.24,3.22,1.45,3,2,6.97,.19,9.98-2.9,4.85-10.18,7.99-13.82,1.56-.09-.16-.31-.05-.28,.11,.04,.24,.1,.45,.16,.68-.56,0-1.13,.38-1.06,1.01,.93,8.07,10.35,10.34,17.16,9.24,8.24-1.32,16.22-7.06,17.63-15.82,.76-4.7-.06-8.87-1.91-12.35,.4,.21,.81,.41,1.23,.6,4.86,2.3,10.22,4.23,15.68,3.97,10.74-.54,24.1-4.52,30.3-13.85,.4-.42,.76-.91,1.07-1.47,.28-.49-.17-1.04-.7-.91-4.09,.9-7.25,1.79-11.41,.32-2.99-1.06-5.71-2.49-8.47-4.02-4.61-2.59-9.4-5.53-14.68-6.51-.89-.16-1.77-.28-2.67-.36,2.63-1.66,5.88-2.9,8.06-3.78,4.65-1.85,9.49-3.35,14.32-4.7,11.34-3.19,22.72-7,34.46-8.38,14.52-1.71,28.98-.26,41.72,7.39,4.16,2.49,7.88,5.42,11.13,8.74,.23,.31,.45,.62,.67,.93,.32,.23,.62,.46,.93,.68,3.33,3.24,6.26,6.97,8.75,11.13,7.65,12.75,9.1,27.2,7.38,41.72-1.38,11.75-5.19,23.13-8.37,34.47-1.36,4.83-2.85,9.65-4.71,14.32-.88,2.18-2.12,5.44-3.77,8.06-.08-.9-.2-1.77-.36-2.67-.98-5.29-3.93-10.06-6.52-14.68-1.53-2.75-2.95-5.49-4.01-8.47-1.47-4.17-.57-7.32,.32-11.41,.11-.54-.42-.99-.92-.72-.55,.33-1.04,.68-1.47,1.09-9.33,6.18-13.31,19.55-13.84,30.29-.27,5.47,1.67,10.82,3.96,15.67,.19,.42,.4,.83,.61,1.24-3.5-1.86-7.67-2.67-12.35-1.91-8.76,1.42-14.51,9.39-15.83,17.63-1.09,6.82,1.17,16.23,9.24,17.15,.64,.08,1.02-.49,1.02-1.04,.22,.05,.44,.11,.67,.15,.17,.03,.28-.2,.12-.28-6.42-3.63-3.29-10.9,1.56-13.82,3.01-1.81,6.97-1.25,9.98,.19,7.28,3.5,6.71,13.48,3.23,19.24-65.98,109.31-63.18,141.03-54.74,180.18,.24,1.12,.5,2.24,.77,3.37-.28,1.11-.53,2.23-.77,3.35-8.43,39.14-11.24,70.86,54.74,180.17,3.48,5.76,4.04,15.74-3.23,19.24-3,1.45-6.96,2-9.98,.19-4.85-2.91-7.98-10.17-1.56-13.82,.15-.08,.05-.31-.12-.28-.23,.05-.45,.1-.67,.16,0-.57-.37-1.14-1.02-1.06-8.07,.93-10.33,10.34-9.24,17.15,1.32,8.25,7.06,16.21,15.83,17.63,4.69,.76,8.85-.05,12.35-1.9-.21,.41-.42,.81-.61,1.24-2.29,4.85-4.23,10.2-3.96,15.67,.53,10.74,4.51,24.1,13.84,30.29,.42,.41,.91,.78,1.47,1.09,.5,.28,1.03-.18,.92-.7-.89-4.1-1.8-7.26-.32-11.43,1.06-2.98,2.48-5.71,4.01-8.46,2.59-4.62,5.53-9.39,6.52-14.68,.16-.88,.28-1.77,.36-2.67,1.64,2.62,2.89,5.89,3.77,8.06,1.86,4.67,3.35,9.49,4.71,14.32,3.18,11.34,6.99,22.72,8.37,34.47,1.72,14.52,.27,28.97-7.38,41.72-2.49,4.17-5.43,7.9-8.75,11.13-.31,.24-.61,.46-.93,.67-.22,.33-.44,.63-.67,.94-3.25,3.32-6.97,6.25-11.13,8.76-12.74,7.63-27.2,9.1-41.72,7.37-11.74-1.38-23.12-5.19-34.46-8.38-4.83-1.35-9.67-2.83-14.32-4.7-2.18-.88-5.44-2.11-8.06-3.76,.89-.1,1.78-.21,2.67-.37,5.28-.98,10.07-3.92,14.68-6.51,2.76-1.53,5.48-2.96,8.47-4,4.16-1.48,7.32-.59,11.41,.31,.53,.13,.98-.42,.7-.91-.31-.55-.67-1.04-1.07-1.47-6.19-9.33-19.56-13.31-30.3-13.85-5.46-.26-10.82,1.68-15.68,3.97-.41,.19-.83,.39-1.23,.6,1.86-3.48,2.67-7.65,1.91-12.35-1.42-8.76-9.39-14.5-17.63-15.82-6.81-1.09-16.23,1.17-17.16,9.24-.07,.64,.5,1.02,1.06,1.02-.06,.21-.12,.42-.16,.67-.03,.16,.19,.28,.28,.11,3.64-6.43,10.91-3.29,13.82,1.56,1.81,3.01,1.25,6.98-.19,9.98-3.5,7.27-13.48,6.7-19.24,3.24-109.31-66-141.03-63.18-180.18-54.75-1.13,.24-2.24,.5-3.36,.78-1.11-.28-2.23-.54-3.35-.78-39.15-8.43-70.87-11.25-180.18,54.75-5.76,3.47-15.73,4.04-19.24-3.24-1.45-3-2-6.97-.2-9.98,2.91-4.85,10.18-7.99,13.82-1.56,.09,.16,.31,.05,.28-.11-.04-.25-.1-.46-.15-.67,.56,0,1.13-.39,1.06-1.02-.94-8.07-10.35-10.33-17.16-9.24-8.24,1.32-16.22,7.06-17.63,15.82-.76,4.7,.06,8.87,1.91,12.35-.4-.21-.81-.41-1.23-.6-4.86-2.3-10.22-4.23-15.68-3.97-10.74,.54-24.1,4.53-30.3,13.85-.4,.42-.77,.91-1.08,1.47-.28,.49,.17,1.04,.7,.91,4.09-.9,7.25-1.79,11.41-.31,2.99,1.04,5.72,2.47,8.47,4,4.61,2.59,9.4,5.54,14.68,6.51,.89,.16,1.77,.28,2.67,.37-2.63,1.65-5.88,2.88-8.06,3.76-4.65,1.87-9.49,3.35-14.31,4.7-11.34,3.19-22.73,7-34.46,8.38-14.52,1.73-28.99,.26-41.73-7.37-4.16-2.51-7.89-5.44-11.13-8.76-.23-.31-.45-.62-.67-.94-.31-.21-.63-.42-.93-.67-3.33-3.24-6.26-6.97-8.76-11.13-7.64-12.74-9.1-27.2-7.38-41.72,1.38-11.75,5.19-23.13,8.38-34.47,1.37-4.84,2.85-9.65,4.71-14.32,.88-2.17,2.12-5.44,3.77-8.06,.08,.9,.19,1.79,.36,2.67,.98,5.29,3.93,10.06,6.52,14.68,1.54,2.75,2.95,5.48,4.01,8.46,1.47,4.17,.58,7.32-.33,11.43-.11,.52,.42,.98,.92,.7,.55-.31,1.04-.68,1.47-1.09,9.34-6.19,13.31-19.55,13.84-30.29,.27-5.47-1.67-10.82-3.96-15.67-.19-.42-.4-.83-.61-1.24,3.5,1.85,7.66,2.67,12.35,1.9,8.77-1.41,14.51-9.38,15.83-17.63,1.1-6.82-1.17-16.23-9.24-17.15-.64-.08-1.02,.49-1.02,1.06-.22-.07-.44-.11-.67-.16-.17-.03-.28,.2-.12,.28,6.42,3.65,3.29,10.91-1.56,13.82-3.01,1.81-6.97,1.25-9.98-.19-7.28-3.5-6.71-13.48-3.23-19.24,65.99-109.31,63.17-141.03,54.74-180.17-.24-1.12-.49-2.25-.77-3.35,.28-1.12,.53-2.25,.77-3.37,8.43-39.15,11.25-70.87-54.74-180.18-3.48-5.76-4.05-15.74,3.23-19.24,3-1.45,6.97-2,9.98-.19,4.85,2.91,7.98,10.19,1.56,13.82-.15,.08-.05,.31,.12,.28,.23-.03,.45-.1,.67-.15,0,.55,.37,1.12,1.02,1.04,8.07-.93,10.34-10.33,9.24-17.15-1.32-8.24-7.06-16.21-15.83-17.63-4.69-.76-8.85,.05-12.35,1.91,.21-.41,.42-.82,.61-1.24,2.29-4.85,4.23-10.2,3.96-15.67-.53-10.74-4.51-24.1-13.84-30.29-.42-.41-.91-.76-1.47-1.09-.5-.28-1.03,.18-.92,.72,.9,4.08,1.8,7.24,.33,11.41-1.06,2.98-2.47,5.71-4.01,8.47-2.59,4.62-5.54,9.39-6.52,14.68-.16,.9-.28,1.77-.36,2.67-1.64-2.62-2.89-5.88-3.77-8.06-1.86-4.67-3.35-9.49-4.71-14.32-3.18-11.34-6.99-22.72-8.38-34.47-1.72-14.52-.26-28.97,7.38-41.72,2.5-4.17,5.43-7.89,8.76-11.13,.3-.23,.62-.46,.93-.68Z" style="fill: #dfeaf5;"/>
      <path d="M226.54,43.68c-2.07,.86-5.22-.13-6.75-1.66-1.79-1.77-2.29-4.74-.9-6.95,.95-1.51,2.85-2.77,4.7-2.78,3.26-.94,6,3.48,6.1,6.4,.09,2.28-1.05,4.12-3.15,5Z" style="fill: #dfeaf5;"/>
      <path d="M43.68,517.06c.86,2.08-.13,5.22-1.65,6.75-1.79,1.79-4.75,2.28-6.95,.91-1.52-.96-2.77-2.85-2.8-4.72-.94-3.26,3.49-5.99,6.4-6.09,2.27-.1,4.12,1.04,5,3.14Z" style="fill: #dfeaf5;"/>
      <path d="M517.05,699.92c2.08-.86,5.23,.13,6.75,1.66,1.79,1.78,2.29,4.75,.9,6.95-.95,1.51-2.85,2.77-4.7,2.8-3.26,.93-5.99-3.5-6.1-6.41-.09-2.26,1.05-4.12,3.15-5Z" style="fill: #dfeaf5;"/>
      <path d="M699.91,226.55c-.86-2.07,.13-5.23,1.65-6.75,1.79-1.79,4.75-2.28,6.95-.9,1.52,.94,2.77,2.83,2.8,4.7,.93,3.25-3.49,5.99-6.4,6.1-2.28,.08-4.13-1.06-5-3.16Z" style="fill: #dfeaf5;"/>
      <path d="M517.05,43.68c2.08,.86,5.23-.13,6.75-1.66,1.79-1.77,2.29-4.74,.9-6.95-.95-1.51-2.85-2.77-4.7-2.78-3.26-.94-6,3.48-6.1,6.4-.09,2.28,1.05,4.12,3.15,5Z" style="fill: #dfeaf5;"/>
      <path d="M43.68,226.55c.86-2.07-.13-5.23-1.65-6.75-1.79-1.79-4.75-2.28-6.95-.91-1.52,.96-2.77,2.85-2.8,4.72-.94,3.25,3.49,5.99,6.4,6.1,2.27,.08,4.12-1.06,5-3.16Z" style="fill: #dfeaf5;"/>
      <path d="M226.54,699.92c-2.07-.86-5.22,.13-6.75,1.66-1.79,1.78-2.29,4.75-.9,6.95,.95,1.51,2.85,2.77,4.71,2.8,3.26,.93,5.99-3.5,6.1-6.41,.09-2.26-1.05-4.12-3.15-5Z" style="fill: #dfeaf5;"/>
      <path d="M699.91,517.06c-.86,2.08,.13,5.22,1.65,6.75,1.79,1.79,4.75,2.3,6.95,.91,1.52-.96,2.77-2.85,2.8-4.72,.93-3.26-3.49-5.99-6.4-6.09-2.28-.1-4.13,1.04-5,3.14Z" style="fill: #dfeaf5;"/>
      <path d="M237.42,56.4c.84,1.17,1.92,1.89,3.36,2.08,.24,.03,.5,.03,.76,0,2.1,.13,3.62-2.44,3.77-4.41,.21-2.91-2.82-4.7-5.36-4.74-1.18-.02-2.44,.39-3.27,1.25-1.17,1.22-1.17,3.04-.32,4.43,.21,.36,.44,.65,.69,.98,.08,.11,.64,.76,.37,.41Zm7.05-1.97s0-.03,.03,.1c0-.03-.02-.06-.03-.1Zm-2.6-.6s0-.02,.04-.05c0,.02-.02,.03-.04,.05Zm-1.1-.75s0-.02,0-.02c0-.03,.02-.03,0,.02Zm-.01,.03h0s0,.02,0,.03h0s0,0,0-.03Z" style="fill: #dfeaf5;"/>
      <path d="M56.38,506.17c1.18-.83,1.9-1.92,2.1-3.35,.02-.25,.02-.49-.02-.75,.14-2.11-2.44-3.63-4.4-3.77-2.9-.21-4.7,2.81-4.73,5.35-.02,1.17,.38,2.44,1.24,3.27,1.21,1.17,3.04,1.17,4.43,.33,.35-.21,.65-.44,.98-.7,.11-.08,.77-.63,.4-.38Zm-1.95-7.03c-.06,0-.05,0,.09-.05-.03,.02-.07,.03-.09,.05Zm-.62,2.59s0,0-.03-.05c.02,.02,.03,.03,.03,.05Zm-.74,1.09s-.01,.01-.01,.01c-.03,0-.03-.01,.01-.01Zm.04,.03v-.02s.02,0,.02,0h.02s-.02,0-.03,.02Z" style="fill: #dfeaf5;"/>
      <path d="M506.17,687.21c-.84-1.17-1.92-1.89-3.36-2.08-.24-.03-.5-.03-.76,0-2.1-.13-3.62,2.44-3.77,4.41-.21,2.91,2.82,4.7,5.35,4.74,1.18,.01,2.44-.39,3.27-1.25,1.18-1.2,1.18-3.03,.32-4.43-.21-.34-.44-.65-.69-.98-.08-.11-.63-.76-.36-.41Zm-7.05,1.97s0,.05-.03-.1c0,.03,.02,.07,.03,.1Zm2.6,.6s0,.02-.04,.05c0-.02,.02-.03,.04-.05Zm1.1,.75s0,.01,0,.01t0-.01Zm.03-.03h0v-.03s0,.02,0,.03Z" style="fill: #dfeaf5;"/>
      <path d="M687.21,237.43c-1.18,.83-1.91,1.92-2.1,3.35-.03,.24-.03,.49,.02,.76-.14,2.1,2.44,3.61,4.4,3.76,2.91,.21,4.7-2.82,4.73-5.35,.02-1.17-.38-2.44-1.24-3.27-1.21-1.17-3.03-1.17-4.43-.31-.35,.2-.65,.42-.98,.68-.11,.08-.77,.63-.4,.37Zm1.95,7.03c.06,0,.05,0-.09,.05,.04-.02,.06-.03,.09-.05Zm.62-2.59s0,0,.03,.05c-.01-.02-.02-.03-.03-.05Zm.75-1.09s0-.02,0-.02t0,.02Zm-.05-.03v.02h-.03s.02,0,.03-.02Z" style="fill: #dfeaf5;"/>
      <path d="M506.17,56.4c-.84,1.17-1.92,1.89-3.36,2.08-.24,.03-.5,.03-.76,0-2.1,.13-3.62-2.44-3.77-4.41-.21-2.91,2.82-4.7,5.35-4.74,1.18-.02,2.44,.39,3.27,1.25,1.17,1.22,1.17,3.04,.32,4.43-.21,.36-.44,.65-.69,.98-.08,.11-.63,.76-.36,.41Zm-7.05-1.97s0-.03-.03,.1c0-.03,.02-.06,.03-.1Zm2.6-.6s0-.02-.04-.05c0,.02,.02,.03,.04,.05Zm1.1-.75s0-.02,0-.02t0,.02Zm.02,.03h0s0,.02,0,.03h0s0,0,0-.03Z" style="fill: #dfeaf5;"/>
      <path d="M56.38,237.43c1.18,.83,1.9,1.92,2.1,3.35,.02,.24,.02,.5-.02,.76,.14,2.1-2.44,3.61-4.4,3.76-2.9,.21-4.7-2.82-4.73-5.35-.02-1.17,.38-2.44,1.24-3.27,1.21-1.17,3.04-1.17,4.43-.31,.35,.2,.65,.42,.98,.68,.11,.08,.77,.63,.4,.37Zm-1.95,7.03c-.06,0-.05,0,.09,.05-.03-.02-.07-.03-.09-.05Zm-.62-2.59s0,0-.03,.05c.02-.02,.03-.03,.03-.05Zm-.74-1.09s-.01-.02-.01-.02c-.03,0-.03,.02,.01,.02Zm.04-.03v.02s.02,0,.02,0h.02s-.02,0-.03-.02Z" style="fill: #dfeaf5;"/>
      <path d="M237.43,687.21c.83-1.17,1.92-1.89,3.35-2.08,.25-.03,.5-.03,.76,0,2.1-.13,3.62,2.44,3.77,4.41,.21,2.91-2.82,4.7-5.36,4.74-1.18,.01-2.43-.39-3.27-1.25-1.17-1.2-1.17-3.03-.32-4.43,.21-.34,.44-.65,.69-.98,.09-.11,.64-.76,.38-.41Zm7.04,1.97s0,.05,.04-.1c-.02,.03-.03,.07-.04,.1Zm-2.6,.6s0,.02,.04,.05c0-.02-.02-.03-.04-.05Zm-1.1,.75s0,.01,0,.01c0,.03,.02,.03,0-.01Zm-.01-.03h0v-.03s0,.02,0,.03Z" style="fill: #dfeaf5;"/>
      <path d="M687.21,506.17c-1.18-.83-1.91-1.92-2.1-3.35-.03-.25-.03-.49,.02-.75-.14-2.11,2.44-3.63,4.4-3.77,2.91-.21,4.7,2.81,4.73,5.35,.02,1.17-.38,2.44-1.24,3.27-1.21,1.17-3.03,1.17-4.43,.33-.35-.21-.65-.44-.98-.7-.11-.08-.77-.63-.4-.38Zm1.95-7.03c.06,0,.05,0-.09-.05,.04,.02,.06,.03,.09,.05Zm.62,2.59s0,0,.03-.05c-.01,.02-.02,.03-.03,.05Zm.75,1.09s0,.01,0,.01c.03,0,.03-.01,0-.01Zm-.05,.03h0s-.02-.02-.02-.02h-.02s.02,0,.03,.02Z" style="fill: #dfeaf5;"/>
      <path d="M128.68,68.49c.81-.78,1.89-1.27,3.11-1.37,1.63-.11,3.58,.68,4.63,1.95,1.49,1.82,1.9,4,.84,6.17-1.15,2.34-3.64,3.66-6.19,3.24-2.08-.34-3.73-2.25-4.34-4.17-.68-2.18-.03-4.85,1.95-5.83Z" style="fill: #dfeaf5;"/>
      <path d="M68.47,614.92c-.77-.81-1.27-1.9-1.35-3.11-.11-1.63,.68-3.58,1.95-4.64,1.82-1.48,3.99-1.9,6.15-.83,2.34,1.14,3.67,3.63,3.25,6.19-.34,2.08-2.24,3.73-4.17,4.34-2.17,.67-4.85,.03-5.83-1.95Z" style="fill: #dfeaf5;"/>
      <path d="M614.91,675.13c-.81,.77-1.89,1.25-3.11,1.35-1.63,.11-3.58-.68-4.62-1.95-1.5-1.82-1.91-4-.85-6.17,1.15-2.34,3.64-3.66,6.19-3.24,2.08,.34,3.73,2.25,4.34,4.18,.68,2.17,.03,4.84-1.95,5.83Z" style="fill: #dfeaf5;"/>
      <path d="M675.11,128.69c.78,.81,1.27,1.89,1.35,3.09,.11,1.63-.68,3.6-1.95,4.64-1.81,1.48-3.99,1.9-6.15,.84-2.34-1.16-3.67-3.65-3.25-6.2,.34-2.08,2.25-3.73,4.17-4.33,2.17-.68,4.84-.03,5.83,1.95Z" style="fill: #dfeaf5;"/>
      <path d="M614.91,68.49c-.81-.78-1.89-1.27-3.11-1.37-1.63-.11-3.58,.68-4.62,1.95-1.5,1.82-1.91,4-.85,6.17,1.15,2.34,3.64,3.66,6.19,3.24,2.08-.34,3.73-2.25,4.34-4.17,.67-2.18,.03-4.85-1.95-5.83Z" style="fill: #dfeaf5;"/>
      <path d="M68.47,128.69c-.77,.81-1.27,1.89-1.35,3.09-.11,1.65,.68,3.58,1.95,4.64,1.82,1.48,3.99,1.9,6.15,.84,2.34-1.16,3.67-3.65,3.25-6.2-.34-2.08-2.24-3.73-4.17-4.33-2.17-.68-4.85-.05-5.83,1.95Z" style="fill: #dfeaf5;"/>
      <path d="M128.68,675.13c.81,.77,1.89,1.25,3.11,1.35,1.63,.11,3.58-.68,4.63-1.95,1.49-1.82,1.9-4,.84-6.17-1.15-2.34-3.64-3.66-6.19-3.24-2.08,.34-3.73,2.25-4.34,4.18-.68,2.17-.03,4.84,1.95,5.83Z" style="fill: #dfeaf5;"/>
      <path d="M675.11,614.92c.78-.81,1.27-1.89,1.35-3.11,.11-1.63-.68-3.58-1.95-4.64-1.81-1.48-3.99-1.9-6.15-.83-2.34,1.14-3.67,3.63-3.25,6.19,.34,2.08,2.25,3.73,4.17,4.34,2.17,.67,4.84,.03,5.83-1.95Z" style="fill: #dfeaf5;"/>
      <path d="M34.97,34.98c.38-.99,.99-1.91,1.76-2.61,.19-.24,.39-.45,.63-.65,1.95-1.64,4.66-2.7,7.06-1.24,1.74,1.06,2.84,2.96,3.12,4.97,.3,2.08,.16,4.41-1.14,6.18-.71,.96-1.61,1.69-2.64,2.13-.45,1.02-1.18,1.94-2.15,2.65-1.76,1.28-4.09,1.43-6.17,1.14-2-.29-3.91-1.38-4.97-3.12-1.47-2.39-.41-5.11,1.23-7.06,.19-.24,.42-.44,.66-.64,.7-.77,1.62-1.38,2.6-1.76Z" style="fill: #dfeaf5;"/>
      <path d="M708.62,34.98c.99,.37,1.9,.99,2.6,1.76,.24,.19,.46,.39,.66,.64,1.64,1.95,2.69,4.67,1.23,7.06-1.07,1.74-2.97,2.83-4.97,3.12-2.07,.29-4.41,.15-6.17-1.14-.97-.72-1.7-1.63-2.15-2.65-1.02-.44-1.93-1.17-2.64-2.13-1.29-1.77-1.43-4.1-1.14-6.18,.28-2,1.37-3.91,3.12-4.97,2.4-1.47,5.12-.41,7.06,1.24,.24,.2,.45,.41,.63,.65,.76,.7,1.38,1.61,1.76,2.61Z" style="fill: #dfeaf5;"/>
      <path d="M708.62,708.63c-.37,.99-.99,1.91-1.76,2.6-.19,.25-.39,.46-.63,.65-1.94,1.64-4.66,2.7-7.06,1.24-1.74-1.06-2.83-2.96-3.12-4.96-.29-2.08-.15-4.41,1.14-6.19,.71-.96,1.61-1.69,2.64-2.13,.45-1.03,1.18-1.94,2.15-2.65,1.76-1.29,4.09-1.43,6.17-1.14,2,.29,3.91,1.38,4.97,3.12,1.46,2.39,.41,5.11-1.23,7.06-.19,.25-.42,.44-.66,.64-.7,.76-1.61,1.38-2.6,1.76Z" style="fill: #dfeaf5;"/>
      <path d="M34.97,708.63c-.98-.38-1.9-.99-2.6-1.76-.24-.19-.46-.39-.66-.64-1.64-1.95-2.69-4.67-1.23-7.06,1.06-1.74,2.97-2.83,4.97-3.12,2.08-.29,4.4-.15,6.17,1.14,.97,.72,1.7,1.63,2.15,2.65,1.03,.44,1.93,1.17,2.64,2.13,1.3,1.77,1.44,4.1,1.14,6.19-.28,2-1.38,3.91-3.12,4.96-2.4,1.47-5.12,.41-7.06-1.24-.24-.2-.45-.41-.63-.65-.77-.7-1.38-1.61-1.76-2.6Z" style="fill: #dfeaf5;"/>
    </g>
  </g>
</svg>