<?xml version="1.0" encoding="UTF-8"?><svg id="b" xmlns="http://www.w3.org/2000/svg" viewBox="0 0 500 500"><path d="m207.12,38.63s104.2,36.82,125.54,5.86c17.58,11.3,18.41,18.83,18.41,18.83,0,0-11.3,32.64-114.66,9.21-12.97-10.88-29.29-33.9-29.29-33.9Z"/><path d="m357.45,68.45s28.35,56.81,21.24,199.08c-4.6,47.29-11.72,69.88-36.41,92.48,10.04-172.82-25.1-267.98-29.69-273.46,35.99,0,44.86-18.1,44.86-18.1Z"/><path d="m302.53,86.86s-47.67-1.99-64.55-8.47c7.22,53.98,1.64,93.87-23.4,92.55-25.14-1.33-34.03-20.31-34.03-20.31,0,0,2.3,18.57,26.57,43.68v104.53c0,1.48-.55,2.91-1.57,3.99-2.65,2.81-8.57,8.09-17.01,9.9,83.27,38.92,142.44,53.56,142.44,53.56,0,0,12.14-182.76-28.46-279.43Z"/><path d="m230.97,142.41s6.56-33.76.14-61.42c-29.29-33.71-63.88-60.77-63.88-60.77,0,0-4.74,37.66-12.27,44.64-18.13,2.51-40.73,10.04-48.82,19.81,79.79,38.5,124.84,57.75,124.84,57.75Z"/><path d="m229.13,148.49s.06,14.16-15.11,14.16-31.18-19.2-37.56-24.64c-2.14,4.39-3.38,13.74-3.38,13.74,0,0-79.79-17.99-95.13-25.25,5.86-19.81,24.27-37.38,24.27-37.38l126.91,59.37Z"/><path d="m76,135.99s-3.1,8.51,0,56.91c55.79,22.04,119.96,3.91,119.96,3.91,0,0-15.06-14.51-21.76-36.55-69.46-10.04-98.2-24.27-98.2-24.27Z"/><path d="m76.56,203.83s5.58,80.86,43.8,92.3c38.22,11.44,75.6,1.39,75.6,1.39v-87.32s-63.61,16.54-119.4-6.38Z"/><path d="m341.86,41.42s30.75,17.58,37.97,63.61c21.17-10.88,32.89-27.62,32.89-27.62,0,0-11.44-28.46-70.86-35.99Z"/><path d="m415.3,83.3s8.58,39.96,3.14,61.93c-1.17,4.74-10.46,25.91-30.55,22.56.24-18.98-5.3-53.84-5.3-53.84,0,0,21.55-9.17,32.71-30.65Z"/><path d="m423.67,153.92s3.84,40.66,0,68.42c-2.43,17.62-6.17,39.47-34.38,39.47,0-29.57-1.39-83.41-1.39-83.41,0,0,18.62,9.42,35.78-24.48Z"/><path d="m143.1,314.4h31.38s60.68,44.36,163.2,63.61c33.06-15.06,42.15-65.28,42.15-65.28,0,0,21.03,25.94,28.15,68.63-35.57,43.1-52.31,50.22-66.12,50.63-13.81.42-95.83,11.3-212.16-82.44,14.23-23.43,13.39-35.15,13.39-35.15Z"/><path d="m121.75,361.96c-13.88,19.59-27.62,28.18-20.92,51.61,28.92,31.29,112.57,68.58,175.37,66.09,8.6-.34,17.64-2.31,24.65-7.3,11.68-8.32,11.74-20.09,11.74-26.57-59.84-3.35-144.81-36.13-190.84-83.83Z"/><path d="m410.07,392.65s8.68,53.98-4.29,68.63c-22.91,13.39-43.42-7.11-48.02-22.18,36.82-13.81,52.31-46.45,52.31-46.45Z"/></svg>