<?xml version="1.0" encoding="UTF-8"?><svg id="a" xmlns="http://www.w3.org/2000/svg" viewBox="0 0 500 500"><path d="m430.88,58.27c.9-.13,1.81-.21,2.73-.25.51-.02,1.02-.06,1.53-.08.41-.02.82-.03,1.23,0,.08,0,.16,0,.24.02-2.99,10.01-5.61,19.88-8.87,29.53-6.36,18.79-12.06,37.82-21.04,55.64-3.95,7.83-8.32,15.34-13.41,22.47-1.44,2.02-3.33,2.97-5.45,3.89-19.63,8.56-40.31,11.01-61.48,10.65-8.06-.14-16.12-.17-24.17.13,29.47,8.03,58.41,4.93,87.86-3.42-5.03,6.95-9.95,13.99-15.11,20.85-18.06,24-37.55,46.65-61.73,64.82-15.59,11.71-32.45,20.84-51.77,24.78-.89.18-1.75.52-2.78.83q3.79,3.66,28.58,3.79c-8.81,6.16-16.97,11.9-25.16,17.59-16.16,11.22-32.06,22.84-49.44,32.17-12.65,6.79-25.83,11.41-40.54,9.41-.46-.06-1,.36-1.75.66,8.34,6.71,16.33,13.49,28.2,10.41-16.57,9.11-33.66,7.65-52.61,3.4,6.19,4.91,10.12,9.74,16.39,12.57-3.95,1.32-7.36.72-10.75-.08-9.3-2.2-17.87-6.8-27.4-8.25-3.38-.51-1.95-2.59-1.18-4.22,13.07-27.88,26.74-55.43,42.7-81.83,24.86-41.13,53.95-78.9,88.21-112.57,39.26-38.59,83.75-69.85,133.28-94.01,1.5-.74,2.99-1.48,4.49-2.22,1.6-.8,3.21-1.59,4.82-2.39s3.34-1.65,5.01-2.46,3.38-1.64,5.08-2.45,3.34-1.58,5.01-2.35,3.2-1.45,4.81-2.15c1.49-.64,2.98-1.27,4.48-1.87,1.33-.53,2.67-1.03,4.02-1.5,1.79-.61,3.59-1.12,5.47-1.42.17-.03.35-.05.52-.08Z"/><path d="m331.92,99.82c-44.62,25.52-84.36,56.83-118.05,95.93-35.26,40.93-64.43,85.8-88.51,133.96-16.45,32.89-31.5,66.47-42.84,101.58-2.29,7.08-4.88,14.06-7.3,21.1-1.81,5.25-4.94,7.46-8.69,5.73-4.57-2.12-4.02-5.73-2.62-9.71,10.22-28.98,21.51-57.53,34.82-85.24,1.31-2.74.85-4.1-1.45-5.6-4.47-2.9-8.95-5.79-13.24-8.94-5.83-4.28-10.03-9.71-11.22-17.66,4.52,1.1,8.63,1.71,13.07-1.02-6.4-5.01-10.17-11.45-11.62-19.76,6.55,5.16,7.07,5.35,19.73,7.02-.1-3.02-1.76-5.35-2.91-7.79-6.55-13.9-10.6-28.18-7.39-43.75,2.12-10.3,6.87-19.39,12.9-27.78,6.99-9.72,14.47-19.09,22.42-28.61-1.39,10.45-.67,20.41,5.48,29.56,2.01-4.28,1.43-8.96,1.67-13.46,1.65-31.23,14.63-57.07,36.65-78.92,16.41-16.28,34.03-31.18,51.59-46.6-5.16,16.81-6.87,33.95-6.15,51.44,1.48-7.14,2.93-14.29,4.44-21.43,2.67-12.61,7.43-24.43,13.97-35.5,4.48-7.58,11.17-13.01,18.59-17.47,27.47-16.5,57.44-26.59,88.36-34.2.49-.12,1.08.14,2,.28-4.97,9.01-4.32,18.86-5.31,28.5,2.53.13,2.07-1.92,2.45-3.17,2.26-7.3,4.7-14.54,8.31-21.29,1.57-2.94,3.09-5.85,7.61-5.67,22.33.87,44.47,3.11,66.15,8.67,2.09.53,4.17,1.09,6.23,1.69,2.16.62,4.32,1.28,6.46,1.99s2.55,1.03,3.89,1.7c.57.29,2.09,1.19,2.12,1.32-1-.06-2,.03-2.99.21-44.31,8.07-72.35,27.86-98.63,42.89Z"/></svg>