<?xml version="1.0" encoding="UTF-8"?><svg id="a" xmlns="http://www.w3.org/2000/svg" viewBox="0 0 500 500"><path d="m289.59,115.64c6.48-.16,12.97-.19,19.48-.12,9.13.1,18.26.41,27.36,1.12,18.01,1.41,35.78,4.57,52.95,10.23,2.18.72,1.65,1.81.63,3.3-1.44,2.1-2.84,4.23-4.13,6.43-5.2,8.84-8.41,18.51-11.44,28.25-4.19,13.48-8.33,27.19-10.93,41.14-5.44,29.17-5.33,59.37.33,88.5,5.37,27.67,16.35,53.62,31.5,77.36,1,1.57.18,2.09-3.53,2.4-61.9,9.83-126.01,11-187.67-1.22-10.95-2.17-21.95-4.46-32.78-6.94-1.19-.27-17.43-5.13-17.4-5.16,21.79-23.08,41.89-49.96,50.11-81.08,5.68-21.49,5.56-44.76-2.17-65.6-5.29-14.25-13.94-26.95-23.64-38.54-9.25-11.05-19.24-22.62-30.08-32.1-1.52-1.33-.75-1.78,2.04-2.4,14.33-3.2,28.13-8.77,42.41-12.4,14.98-3.8,30.16-6.81,45.45-9,17.15-2.46,34.29-3.75,51.51-4.17Z"/><path d="m199.62,248.79c-.15,36.53-17.05,70.36-46.87,103.06-1.51,1.66-3.13,3.29-4.52,4.97-.93,1.12-2.19,1.27-4.84.92-11.69-1.57-11.72-1.52-6.61-6.28,18.68-17.39,32.05-35.54,40.25-54.39,10-22.99,12.02-46.18,6.45-69.43-6.38-26.63-20.91-52.38-45.83-76.94-.79-.78-1.69-1.54-2.49-2.31-.89-.86-2.72-1.68.51-2.51,3.35-.86,3.94.32,5.04,1.08,12.03,8.38,21.32,17.33,28.76,26.64,13.11,16.39,21.91,33.23,26.71,50.44,2.4,8.62,3.35,17.3,3.43,24.75Z"/><path d="m405.71,362.91c-6.11-.32-7.83-1.89-9.08-4.02-8.39-14.22-15.29-28.57-20.31-43.1-7.89-22.81-13.14-54.6-12.39-77.64.46-14.18,2.66-28.33,6.11-42.45,4.39-17.93,10.46-35.73,20.49-53.24,1.17-2.04,8.91-16.58,11.89-9.85.86,1.94-.12,4.16-1.06,6.06-25.77,52.1-31.52,108.73-20.08,165.75,4.07,20.32,11.96,39.88,23.69,57.01.29.43.45.88.74,1.47Z"/><path d="m126.96,141.39c10.7-36.19,5.25-67.84-21.95-94.87,34.62,8.19,69.17,7.77,103.72,5.87,40.08-2.21,79.91-6.96,119.6-13.06,30.36-4.67,60.62-9.73,90.69-15.97,3.65-.76,5.58-.12,6.87,3.74,5.1,15.25,8.96,30.71,8.25,46.91-.85,19.4-7.98,35.39-25.75,45.3-2.89,1.61-5.5,1.98-8.83,1.17-38.65-9.32-77.9-11.8-117.51-9.92-52.91,2.5-104.02,14.19-155.1,30.84Zm20.98-82.17c2.73,5.46,5.41,10.3,7.64,15.34,7.06,15.96,12.28,32.21,6.52,49.86-.76,2.32.42,2.24,2.1,1.97,3.91-.63,6.49-2.39,7.71-6.53,5.49-18.54,1.45-35.7-7.12-52.25-5.05-9.76-5.17-9.75-16.85-8.39Zm235.22,51.52c4.86,3.12,7.4-.13,9.92-2.59,22.37-21.76,17.66-52.61,6.49-74.93-1.92-3.83-5.56-1.01-7.91-.18-2.55.9-.05,2.88.58,4.19,6.46,13.5,9.49,27.48,6.57,42.46-2.29,11.76-8.33,21.6-15.65,31.05Z"/><path d="m43.73,122.06c5.61-11.96,14.43-23.41,5.28-37.7,21.69-3.37,43.92-2.89,64.12-12.43-5.3,32.27-34.57,48.25-69.4,50.14Z"/><path d="m116.94,68.57c8.68,18.92,13.56,36.82,9.12,56.25-1.01,4.42-2.55,6.36-8.07,5.12-19.05-4.29-38.53-5.17-58.32-5.9,31.59-4.86,53.19-20.21,57.27-55.46Z"/><path d="m47.82,87.75c5.77,9.5.42,23.38-4.41,28.83-1.77,1.99-3.37,1.14-4.94-.15-5.91-4.88-11.06-10.38-14.44-18.17,11.67,4.62,18.33-1.68,23.78-10.51Z"/><path d="m104.9,453.29c27.3-27.63,32.92-59.07,22.06-94.96,8.16,2.49,15.62,4.86,23.13,7.04,33.68,9.79,67.94,16.59,102.85,20.3,36.99,3.93,73.92,4.02,110.86-.13,12.43-1.4,24.77-3.53,36.9-6.65,2.66-.68,4.64-.32,6.87.87,17.75,9.45,25.44,25.05,26.6,44.3,1.05,17.46-2.89,34.15-8.98,50.42-.89,2.37-1.87,2.75-4.2,2.25-36.13-7.75-72.59-13.64-109.15-18.89-22.51-3.23-45.1-5.84-67.77-7.88-25.31-2.28-50.63-3.94-76.03-3.63-20.84.25-41.66,1.37-63.14,6.96Zm43.06-12.51c4.84-.46,9.88,2.28,12.7-2.05,11.8-18.12,17.58-37.55,11.3-59.24-1.57-5.41-5.57-6.02-10.35-6.53,8.01,25.27-2.69,46.28-13.66,67.82Zm261.12-12.19c-.32-6.01-1.3-12.49-3.7-18.7-3.26-8.45-8.51-15.43-15.37-21.28-2.04-1.74-4.51-1.56-6.31-.52-1.78,1.03.35,2.39,1.07,3.27,17.91,21.79,19.58,45.34,7.94,70.47-.63,1.36-4,3.62-.36,4.84,2.38.79,5.71,3.29,7.9-1.41,5.33-11.48,8.54-23.41,8.83-36.67Z"/><path d="m113.28,427.66c-20.44-9.37-42.37-9.31-64.05-12.26,9.02-14.05.65-25.67-5.45-37.66,32.08.96,63.82,16.41,69.51,49.93Z"/><path d="m60.97,375.73c14.85-.58,29.54-1.85,44.17-3.76,4.82-.63,9.79-.98,14.34-2.52,4.69-1.58,5.5,1.1,6.39,4.21,3.27,11.35,2.38,22.7-.29,33.99-1.84,7.74-4.38,15.25-8.64,23.78-3.66-34.77-24.52-50.53-55.97-55.7Z"/><path d="m48.2,412.59c-5.73-10.03-12.53-15.51-24.27-11.22,4.16-7.89,8.8-14.15,15.5-18.78,1.83-1.26,3.1-1.06,4.34.71,6.08,8.62,8.63,17.79,4.43,29.3Z"/></svg>