<?xml version="1.0" encoding="UTF-8"?><svg id="a" xmlns="http://www.w3.org/2000/svg" viewBox="0 0 500 500"><path d="m465.88,34.08c-8.96,25.41-17.73,49.44-25.84,73.7-3.07,9.17-8.02,16.14-15.36,22.52-50.7,44.09-101.04,88.58-151.48,132.96-19.91,17.52-39.76,35.12-59.65,52.66-1.84,1.62-3.38,4.23-6.52,1.67-3.33-2.71-5.35-4.58-1.17-8.9,36.9-38.1,73.55-76.43,110.27-114.7,15.81-16.47,31.6-32.95,47.44-49.38,3.08-3.2,5.84-6.52,1.68-10.53-3.89-3.74-7.07-1-10.06,1.87-38.12,36.6-76.25,73.19-114.4,109.76-16.79,16.1-33.6,32.18-50.47,48.21-1.64,1.56-3.22,4.9-6.12,1.21-2.08-2.64-4.87-4.33-1.15-8.51,32.8-36.87,65.31-73.99,97.92-111.03,31.32-35.57,62.78-71.01,93.82-106.8,4.3-4.96,9.63-6.28,15.06-8.21,23.9-8.49,47.83-16.93,71.75-25.37.96-.34,1.97-.52,4.28-1.12Z"/><path d="m71.7,465.92c-1.15-.06-1.23-1.7-1.77-2.73-7.62-14.48-18.72-25.5-33.09-33.18-3.21-1.71-3.68-3.1-.87-5.54,2.13-1.85,4.2-3.81,6.02-5.95,2.93-3.45,5.53-5.08,8.9-.36,2.28,3.21,4.52.88,6.53-.78,18.81-15.52,36.43-32.28,52.93-50.23,9.27-10.08,18.3-20.38,26.52-31.35,2.45-3.27,4.21-3.22,7.18-.62,7.21,6.33,13.74,13.28,20.24,20.3,2.82,3.05,2.76,4.71-.74,7.44-29.61,23.05-56.36,49.07-80.27,78.02-2.83,3.43-4.69,6.23-.09,9.51.81.58,1.4,1.65,1.74,2.61.27.76-11.81,12.84-13.24,12.85Z"/><path d="m118.72,297.57c9.78-9.79,19.25-19.25,28.98-28.99,6.86,12.4,13.63,24.71,22.64,35.64,15.7,19.04,34.32,34.36,56.52,45.18,3.75,1.83,4.49,2.95,1.12,6.12-7.89,7.44-15.46,15.22-23.1,22.92-2.07,2.08-3.28,2.9-5.04-.62-17.64-35.46-44.56-61.62-80.02-79.1-.36-.18-.6-.61-1.11-1.14Z"/></svg>